<?xml version="1.0" standalone="no"?>
<svg xmlns:xlink="http://www.w3.org/1999/xlink" id="wave" style="transform:rotate(180deg); transition: 0.3s" viewBox="0 0 1440 130" version="1.1" xmlns="http://www.w3.org/2000/svg"><defs><linearGradient id="sw-gradient-0" x1="0" x2="0" y1="1" y2="0"><stop stop-color="rgba(0, 153, 255, 1)" offset="0%"/><stop stop-color="rgba(96, 165, 250, 1)" offset="100%"/></linearGradient></defs><path style="transform:translate(0, 0px); opacity:1" fill="url(#sw-gradient-0)" d="M0,78L12,80.2C24,82,48,87,72,80.2C96,74,120,56,144,52C168,48,192,56,216,54.2C240,52,264,39,288,47.7C312,56,336,87,360,88.8C384,91,408,65,432,54.2C456,43,480,48,504,58.5C528,69,552,87,576,78C600,69,624,35,648,21.7C672,9,696,17,720,26C744,35,768,43,792,47.7C816,52,840,52,864,62.8C888,74,912,95,936,99.7C960,104,984,91,1008,88.8C1032,87,1056,95,1080,82.3C1104,69,1128,35,1152,23.8C1176,13,1200,26,1224,26C1248,26,1272,13,1296,26C1320,39,1344,78,1368,84.5C1392,91,1416,65,1440,56.3C1464,48,1488,56,1512,52C1536,48,1560,30,1584,39C1608,48,1632,82,1656,97.5C1680,113,1704,108,1716,106.2L1728,104L1728,130L1716,130C1704,130,1680,130,1656,130C1632,130,1608,130,1584,130C1560,130,1536,130,1512,130C1488,130,1464,130,1440,130C1416,130,1392,130,1368,130C1344,130,1320,130,1296,130C1272,130,1248,130,1224,130C1200,130,1176,130,1152,130C1128,130,1104,130,1080,130C1056,130,1032,130,1008,130C984,130,960,130,936,130C912,130,888,130,864,130C840,130,816,130,792,130C768,130,744,130,720,130C696,130,672,130,648,130C624,130,600,130,576,130C552,130,528,130,504,130C480,130,456,130,432,130C408,130,384,130,360,130C336,130,312,130,288,130C264,130,240,130,216,130C192,130,168,130,144,130C120,130,96,130,72,130C48,130,24,130,12,130L0,130Z"/><defs><linearGradient id="sw-gradient-1" x1="0" x2="0" y1="1" y2="0"><stop stop-color="rgba(0, 123, 255, 1)" offset="0%"/><stop stop-color="rgba(11, 146.708, 255, 1)" offset="100%"/></linearGradient></defs><path style="transform:translate(0, 50px); opacity:0.9" fill="url(#sw-gradient-1)" d="M0,104L12,106.2C24,108,48,113,72,110.5C96,108,120,100,144,99.7C168,100,192,108,216,108.3C240,108,264,100,288,91C312,82,336,74,360,75.8C384,78,408,91,432,80.2C456,69,480,35,504,26C528,17,552,35,576,49.8C600,65,624,78,648,84.5C672,91,696,91,720,95.3C744,100,768,108,792,108.3C816,108,840,100,864,95.3C888,91,912,91,936,95.3C960,100,984,108,1008,106.2C1032,104,1056,91,1080,78C1104,65,1128,52,1152,56.3C1176,61,1200,82,1224,86.7C1248,91,1272,78,1296,62.8C1320,48,1344,30,1368,21.7C1392,13,1416,13,1440,26C1464,39,1488,65,1512,71.5C1536,78,1560,65,1584,52C1608,39,1632,26,1656,26C1680,26,1704,39,1716,45.5L1728,52L1728,130L1716,130C1704,130,1680,130,1656,130C1632,130,1608,130,1584,130C1560,130,1536,130,1512,130C1488,130,1464,130,1440,130C1416,130,1392,130,1368,130C1344,130,1320,130,1296,130C1272,130,1248,130,1224,130C1200,130,1176,130,1152,130C1128,130,1104,130,1080,130C1056,130,1032,130,1008,130C984,130,960,130,936,130C912,130,888,130,864,130C840,130,816,130,792,130C768,130,744,130,720,130C696,130,672,130,648,130C624,130,600,130,576,130C552,130,528,130,504,130C480,130,456,130,432,130C408,130,384,130,360,130C336,130,312,130,288,130C264,130,240,130,216,130C192,130,168,130,144,130C120,130,96,130,72,130C48,130,24,130,12,130L0,130Z"/></svg>