<?xml version="1.0" standalone="no"?>
<svg xmlns:xlink="http://www.w3.org/1999/xlink" id="wave" style="transform:rotate(0deg); transition: 0.3s" viewBox="0 0 1440 170" version="1.1" xmlns="http://www.w3.org/2000/svg"><defs><linearGradient id="sw-gradient-0" x1="0" x2="0" y1="1" y2="0"><stop stop-color="rgba(0, 153, 255, 1)" offset="0%"/><stop stop-color="rgba(96, 165, 250, 1)" offset="100%"/></linearGradient></defs><path style="transform:translate(0, 0px); opacity:1" fill="url(#sw-gradient-0)" d="M0,17L16,31.2C32,45,64,74,96,76.5C128,79,160,57,192,45.3C224,34,256,34,288,42.5C320,51,352,68,384,65.2C416,62,448,40,480,51C512,62,544,108,576,127.5C608,147,640,142,672,124.7C704,108,736,79,768,82.2C800,85,832,119,864,127.5C896,136,928,119,960,104.8C992,91,1024,79,1056,76.5C1088,74,1120,79,1152,82.2C1184,85,1216,85,1248,70.8C1280,57,1312,28,1344,17C1376,6,1408,11,1440,28.3C1472,45,1504,74,1536,82.2C1568,91,1600,79,1632,85C1664,91,1696,113,1728,102C1760,91,1792,45,1824,42.5C1856,40,1888,79,1920,93.5C1952,108,1984,96,2016,102C2048,108,2080,130,2112,133.2C2144,136,2176,119,2208,119C2240,119,2272,136,2288,144.5L2304,153L2304,170L2288,170C2272,170,2240,170,2208,170C2176,170,2144,170,2112,170C2080,170,2048,170,2016,170C1984,170,1952,170,1920,170C1888,170,1856,170,1824,170C1792,170,1760,170,1728,170C1696,170,1664,170,1632,170C1600,170,1568,170,1536,170C1504,170,1472,170,1440,170C1408,170,1376,170,1344,170C1312,170,1280,170,1248,170C1216,170,1184,170,1152,170C1120,170,1088,170,1056,170C1024,170,992,170,960,170C928,170,896,170,864,170C832,170,800,170,768,170C736,170,704,170,672,170C640,170,608,170,576,170C544,170,512,170,480,170C448,170,416,170,384,170C352,170,320,170,288,170C256,170,224,170,192,170C160,170,128,170,96,170C64,170,32,170,16,170L0,170Z"/><defs><linearGradient id="sw-gradient-1" x1="0" x2="0" y1="1" y2="0"><stop stop-color="rgba(0, 123, 255, 1)" offset="0%"/><stop stop-color="rgba(11, 146.708, 255, 1)" offset="100%"/></linearGradient></defs><path style="transform:translate(0, 50px); opacity:0.9" fill="url(#sw-gradient-1)" d="M0,34L16,39.7C32,45,64,57,96,62.3C128,68,160,68,192,76.5C224,85,256,102,288,107.7C320,113,352,108,384,99.2C416,91,448,79,480,76.5C512,74,544,79,576,82.2C608,85,640,85,672,87.8C704,91,736,96,768,82.2C800,68,832,34,864,42.5C896,51,928,102,960,113.3C992,125,1024,96,1056,76.5C1088,57,1120,45,1152,53.8C1184,62,1216,91,1248,99.2C1280,108,1312,96,1344,82.2C1376,68,1408,51,1440,42.5C1472,34,1504,34,1536,53.8C1568,74,1600,113,1632,113.3C1664,113,1696,74,1728,59.5C1760,45,1792,57,1824,59.5C1856,62,1888,57,1920,53.8C1952,51,1984,51,2016,45.3C2048,40,2080,28,2112,39.7C2144,51,2176,85,2208,107.7C2240,130,2272,142,2288,147.3L2304,153L2304,170L2288,170C2272,170,2240,170,2208,170C2176,170,2144,170,2112,170C2080,170,2048,170,2016,170C1984,170,1952,170,1920,170C1888,170,1856,170,1824,170C1792,170,1760,170,1728,170C1696,170,1664,170,1632,170C1600,170,1568,170,1536,170C1504,170,1472,170,1440,170C1408,170,1376,170,1344,170C1312,170,1280,170,1248,170C1216,170,1184,170,1152,170C1120,170,1088,170,1056,170C1024,170,992,170,960,170C928,170,896,170,864,170C832,170,800,170,768,170C736,170,704,170,672,170C640,170,608,170,576,170C544,170,512,170,480,170C448,170,416,170,384,170C352,170,320,170,288,170C256,170,224,170,192,170C160,170,128,170,96,170C64,170,32,170,16,170L0,170Z"/></svg>