<?xml version="1.0" standalone="no"?>
<svg xmlns:xlink="http://www.w3.org/1999/xlink" id="wave" style="transform:rotate(180deg); transition: 0.3s" viewBox="0 0 1440 200" version="1.1" xmlns="http://www.w3.org/2000/svg"><defs><linearGradient id="sw-gradient-0" x1="0" x2="0" y1="1" y2="0"><stop stop-color="rgba(0, 153, 255, 1)" offset="0%"/><stop stop-color="rgba(96, 165, 250, 1)" offset="100%"/></linearGradient></defs><path style="transform:translate(0, 0px); opacity:1" fill="url(#sw-gradient-0)" d="M0,20L16,36.7C32,53,64,87,96,90C128,93,160,67,192,53.3C224,40,256,40,288,50C320,60,352,80,384,76.7C416,73,448,47,480,60C512,73,544,127,576,150C608,173,640,167,672,146.7C704,127,736,93,768,96.7C800,100,832,140,864,150C896,160,928,140,960,123.3C992,107,1024,93,1056,90C1088,87,1120,93,1152,96.7C1184,100,1216,100,1248,83.3C1280,67,1312,33,1344,20C1376,7,1408,13,1440,33.3C1472,53,1504,87,1536,96.7C1568,107,1600,93,1632,100C1664,107,1696,133,1728,120C1760,107,1792,53,1824,50C1856,47,1888,93,1920,110C1952,127,1984,113,2016,120C2048,127,2080,153,2112,156.7C2144,160,2176,140,2208,140C2240,140,2272,160,2288,170L2304,180L2304,200L2288,200C2272,200,2240,200,2208,200C2176,200,2144,200,2112,200C2080,200,2048,200,2016,200C1984,200,1952,200,1920,200C1888,200,1856,200,1824,200C1792,200,1760,200,1728,200C1696,200,1664,200,1632,200C1600,200,1568,200,1536,200C1504,200,1472,200,1440,200C1408,200,1376,200,1344,200C1312,200,1280,200,1248,200C1216,200,1184,200,1152,200C1120,200,1088,200,1056,200C1024,200,992,200,960,200C928,200,896,200,864,200C832,200,800,200,768,200C736,200,704,200,672,200C640,200,608,200,576,200C544,200,512,200,480,200C448,200,416,200,384,200C352,200,320,200,288,200C256,200,224,200,192,200C160,200,128,200,96,200C64,200,32,200,16,200L0,200Z"/><defs><linearGradient id="sw-gradient-1" x1="0" x2="0" y1="1" y2="0"><stop stop-color="rgba(0, 123, 255, 1)" offset="0%"/><stop stop-color="rgba(11, 146.708, 255, 1)" offset="100%"/></linearGradient></defs><path style="transform:translate(0, 50px); opacity:0.9" fill="url(#sw-gradient-1)" d="M0,40L16,46.7C32,53,64,67,96,73.3C128,80,160,80,192,90C224,100,256,120,288,126.7C320,133,352,127,384,116.7C416,107,448,93,480,90C512,87,544,93,576,96.7C608,100,640,100,672,103.3C704,107,736,113,768,96.7C800,80,832,40,864,50C896,60,928,120,960,133.3C992,147,1024,113,1056,90C1088,67,1120,53,1152,63.3C1184,73,1216,107,1248,116.7C1280,127,1312,113,1344,96.7C1376,80,1408,60,1440,50C1472,40,1504,40,1536,63.3C1568,87,1600,133,1632,133.3C1664,133,1696,87,1728,70C1760,53,1792,67,1824,70C1856,73,1888,67,1920,63.3C1952,60,1984,60,2016,53.3C2048,47,2080,33,2112,46.7C2144,60,2176,100,2208,126.7C2240,153,2272,167,2288,173.3L2304,180L2304,200L2288,200C2272,200,2240,200,2208,200C2176,200,2144,200,2112,200C2080,200,2048,200,2016,200C1984,200,1952,200,1920,200C1888,200,1856,200,1824,200C1792,200,1760,200,1728,200C1696,200,1664,200,1632,200C1600,200,1568,200,1536,200C1504,200,1472,200,1440,200C1408,200,1376,200,1344,200C1312,200,1280,200,1248,200C1216,200,1184,200,1152,200C1120,200,1088,200,1056,200C1024,200,992,200,960,200C928,200,896,200,864,200C832,200,800,200,768,200C736,200,704,200,672,200C640,200,608,200,576,200C544,200,512,200,480,200C448,200,416,200,384,200C352,200,320,200,288,200C256,200,224,200,192,200C160,200,128,200,96,200C64,200,32,200,16,200L0,200Z"/></svg>